<svg xmlns="http://www.w3.org/2000/svg" width="139.3mm" height="34.58mm" viewBox="0 0 394.88 98.02">
  <g id="Layer_2" data-name="Layer 2">
    <g id="Layer_1-2" data-name="Layer 1">
      <g>
        <path d="M394.88,33.93c-1.87.19-3.73.35-5.59.58-2.21.28-3.14-.49-3-2.65.28-4.58.64-9.15.9-13.72a16,16,0,0,0-.13-4c-.59-3-2.65-4.63-5.5-5.34a2.71,2.71,0,0,0-3.32,1.68,7.33,7.33,0,0,0-.66,2.64c-.22,5.82-.36,11.64-.53,17.46-.05,1.81-.07,1.86-1.84,2.07-1.07.12-2.15.18-3.21.32-.87.11-1.13-.26-1.12-1.08.05-3.15.06-6.3.08-9.45,0-2.55,0-5.1,0-7.65,0-3.47-2.14-5.25-5.41-6a2.7,2.7,0,0,0-2,.7,7.17,7.17,0,0,0-2.42,5.63c.09,5.27.07,10.53.18,15.8,0,1.17-.31,1.64-1.49,1.69-1.58.07-3.17.27-4.94.43V31.64q0-9.15,0-18.31c0-3-.18-3.61-1.89-6.21,1.06-.38,2.08-.76,3.1-1.11s2.32-1.2,3.25-.94,1.21,1.69,1.8,2.6a1.15,1.15,0,0,0,.26.19c1.42-.77,2.89-1.56,4.34-2.36,2.71-1.5,5.16-1,7.37,1,3,2.72,2.59,2,5.31.39a35.77,35.77,0,0,1,5-2.27,2.46,2.46,0,0,1,1.62.1,15,15,0,0,1,7.6,6.12,4.58,4.58,0,0,1,.7,2.45c-.21,5.34-.53,10.67-.81,16,0,.16,0,.31,0,.47-.14,2.26.18,2.69,2.4,3.22Z"/>
        <path d="M0,6.53c2.37-.66,4.55-1.3,6.75-1.85.23-.06.69.27.86.53.42.67.73,1.41,1.16,2.25,1-.57,1.87-1,2.69-1.63C15.91,2.6,20.2,4.47,23.1,7.37a9.93,9.93,0,0,1,2.75,9,7.75,7.75,0,0,1-4.37,5.8c-1.09.57-2.26,1-3.39,1.49s-1.15.83-.4,1.54c4.16,3.91,8.31,7.84,12.55,11.66.55.5,1.59.46,2.41.65.31.08.63.13.94.18-.1.32-.11.79-.33.92a5.74,5.74,0,0,1-2.11.93,30.59,30.59,0,0,1-3.83,0,4.64,4.64,0,0,1-3.21-1.35q-6.42-5.85-12.94-11.59a9.36,9.36,0,0,0-2-1,12.69,12.69,0,0,0-.53,2.08c-.09,1.06.06,2.15,0,3.22A1.45,1.45,0,0,1,7.76,32c-1.66.39-3.35.63-5.19.95,0-.62-.07-1.12-.07-1.62,0-6.66,0-13.32,0-20,0-1.75-.08-3.39-2-4.15C.33,7.1.25,6.86,0,6.53ZM8.6,17h0c0,1.52,0,3,0,4.55A1.26,1.26,0,0,0,10,23c.92,0,1.84,0,2.76,0,3.51-.21,6.72-2.92,7.06-5.92a7.67,7.67,0,0,0-5.49-8.45c-3.24-1-4.25-.25-5.57,3.28a4.64,4.64,0,0,0-.15,1.54C8.59,14.61,8.6,15.8,8.6,17Z"/>
        <path d="M326.35,33V31.31c0-6.82,0-13.64,0-20.46,0-1.54-.18-2.88-1.82-3.54-.21-.08-.34-.38-.64-.74l7.21-2,1.55,2.94L335.13,6c5.66-3.42,12.18-1,14.27,5.36a8.76,8.76,0,0,1-4.78,11.27c-.89.43-1.83.78-2.76,1.14s-1.07.74-.39,1.4c2.24,2.16,4.44,4.37,6.79,6.42.55.49,1.59.42,2.41.6l.85.18c-.08.31-.07.79-.27.91a5.46,5.46,0,0,1-2.23,1,30,30,0,0,1-5-.21,3.35,3.35,0,0,1-1.62-.93c-2.47-2.14-4.91-4.33-7.36-6.51a7.44,7.44,0,0,0-.93-.75c-.91-.57-1.57-.26-1.62.82-.07,1.39,0,2.79-.06,4.19,0,.38-.32,1-.6,1.09C330.09,32.36,328.32,32.63,326.35,33Zm6.1-15.83h0c0,1.48,0,3,0,4.43a1.26,1.26,0,0,0,1.4,1.41c.88,0,1.76,0,2.64,0a7.51,7.51,0,0,0,7.28-6.36,7.75,7.75,0,0,0-5.43-7.94c-3.19-1-4.42-.59-5.76,3.45a4.36,4.36,0,0,0-.13,1.3C332.44,14.68,332.45,15.91,332.45,17.15Z"/>
        <path d="M122.5,7.46c.93-.56,1.83-1,2.62-1.59,4.74-3.48,9.32-1.11,12,1.79a10,10,0,0,1,2.42,9,7.61,7.61,0,0,1-4.12,5.43c-1.19.64-2.47,1.13-3.72,1.65-.8.33-1,.8-.33,1.42,2.24,2.16,4.44,4.37,6.78,6.42.54.47,1.59.38,2.4.56.29.06.58.14.86.22-.07.28-.06.72-.24.81a7.43,7.43,0,0,1-2.55,1.07,24.14,24.14,0,0,1-4.65-.19,3.47,3.47,0,0,1-1.64-.9c-2.5-2.17-5-4.38-7.44-6.58a7.44,7.44,0,0,0-.93-.75c-.92-.58-1.55-.26-1.6.83,0,1.36,0,2.72,0,4.07a1.13,1.13,0,0,1-1.12,1.36c-1.6.24-3.2.53-5,.83V31.39c0-6.77,0-13.55,0-20.33,0-1.63-.11-3.14-1.94-3.83-.1,0-.18-.15-.25-.25a3.29,3.29,0,0,1-.19-.48c2.28-.64,4.52-1.29,6.78-1.87.17,0,.53.28.66.52C121.72,5.86,122.07,6.62,122.5,7.46Zm-.17,9.6c0,1.48,0,3,0,4.43A1.3,1.3,0,0,0,123.79,23c.92,0,1.84.05,2.75,0a7.43,7.43,0,0,0,7.07-6.45A7.62,7.62,0,0,0,128,8.59c-3.08-.87-4.57,0-5.45,3.11a6.57,6.57,0,0,0-.22,1.53C122.31,14.51,122.33,15.78,122.33,17.06Z"/>
        <path d="M57.55,18.51a13.45,13.45,0,0,1-5.64,11.3c-2.53,1.9-5.19,3.6-8.48,3.91A13.35,13.35,0,0,1,28.67,20.51c-.1-6.4,2.57-11.13,8.32-14,1.25-.63,2.55-1.16,3.77-1.85a7.22,7.22,0,0,1,5.89-.42A14.85,14.85,0,0,1,57.55,18.51ZM51.49,20A10.22,10.22,0,0,0,49,13a16.73,16.73,0,0,0-8.45-5.15,2.55,2.55,0,0,0-3.07,1.07,19.34,19.34,0,0,0-2.31,4.92c-1.24,5.14-.86,10,4,13.32a29.75,29.75,0,0,0,5.94,3c1.79.71,2.89.17,3.94-1.47A15.42,15.42,0,0,0,51.49,20Z"/>
        <path d="M183.83,21.58c0-7.58,2.57-12,7.87-14.86a47.76,47.76,0,0,1,5.51-2.61,6.57,6.57,0,0,1,3.15-.23,14.79,14.79,0,0,1,12.22,13.26c.55,5.54-1.53,9.8-6,13-2.24,1.62-4.58,3.13-7.4,3.48C190.62,34.71,183.78,28.6,183.83,21.58Zm22.85-2.18a10.13,10.13,0,0,0-2.39-6.27,16.6,16.6,0,0,0-8.5-5.27A2.6,2.6,0,0,0,192.63,9a18.35,18.35,0,0,0-2.22,4.7c-1.32,5.24-.93,10.16,4,13.53a29.79,29.79,0,0,0,5.84,2.92c1.82.71,2.92.19,4-1.42A16.54,16.54,0,0,0,206.68,19.4Z"/>
        <path d="M58.54,5.89a11.52,11.52,0,0,1,1.38-.63c1.31-.37,2.64-.66,3.93-1.06A1.43,1.43,0,0,1,65.74,5c.35.62.73,1.21,1.17,1.93.49-.39.91-.67,1.29-1a7.69,7.69,0,0,1,10.25.4,3.85,3.85,0,0,1,.61,4.84A12.05,12.05,0,0,1,77,13.71c-.72.7-.66,1.16.11,1.71,1.26.91,2.55,1.79,3.74,2.79a6.72,6.72,0,0,1,.7,9.89c-2.62,2.95-5.7,5.3-9.8,5.36a58,58,0,0,1-9.27-.84c-1.53-.23-1.74-.88-1.61-2.42.11-1.38.22-2.78.23-4.17,0-5,0-10,0-15.08C61.09,9,61,7.08,58.54,5.89Zm8.62,17.74c0,1.55,0,3.11,0,4.67a1.66,1.66,0,0,0,1.23,1.82,33.94,33.94,0,0,0,4.3,1,4.54,4.54,0,0,0,5.14-5.4c-.64-3.83-5.36-8-9.21-8.14-1-.05-1.49.34-1.47,1.37C67.18,20.52,67.16,22.07,67.16,23.63ZM69.84,7.28a2.38,2.38,0,0,0-2.43,2.3c-.1,1.71,0,3.42,0,5.13,0,.9.55,1.38,1.4,1.19a29.94,29.94,0,0,0,4.36-1.2,2.87,2.87,0,0,0,1.8-3C74.72,9.94,71.68,7.27,69.84,7.28Z"/>
        <path d="M214.1,6.61l5.76-2.1,1.77,4.92c.46-.26.83-.44,1.17-.67,1.87-1.23,3.74-2.45,5.58-3.72a3.54,3.54,0,0,1,3.51-.4A15.08,15.08,0,0,1,239,9.77a6.94,6.94,0,0,1,1.37,3.58c.08,3-.18,6-.33,9.07-.11,2-.25,4.06-.38,6.08a2.38,2.38,0,0,0,1.25,2.4,3.93,3.93,0,0,1,.83.89l-.1.35c-2.25.17-4.49.42-6.74.46-1,0-1.61-1-1.52-2.35.23-3.5.54-7,.77-10.49a41.54,41.54,0,0,0,.1-5.23,3.31,3.31,0,0,0-1-2.23,35,35,0,0,0-5.53-3.68c-1.4-.71-2.78.07-3.64,1.67a17.58,17.58,0,0,0-2.18,8c-.1,4.22-.27,8.44-.38,12.67,0,.88-.29,1.27-1.24,1.29a35.59,35.59,0,0,0-3.69.41c-.91.12-1.31-.15-1.28-1.15.16-5.22.23-10.44.38-15.66C215.77,12.73,216,9.61,214.1,6.61Z"/>
        <path d="M107.25,11.39c-1.26-.87-2.38-1.79-3.63-2.48a27.62,27.62,0,0,0-4.33-2,3.63,3.63,0,0,0-3.61.77,11.09,11.09,0,0,0-4,7.75c-.09,1,.28,1.51,1.42,1.49,3.56-.06,7.11,0,10.67,0a5.49,5.49,0,0,0,3.72-1c.55-.47,1-.28,1.25.25a2.07,2.07,0,0,1,0,1.43c-.11.3-.61.48-1,.65a13.54,13.54,0,0,1-6.33,1.56c-3.07,0-6.14,0-9.47,0a18.37,18.37,0,0,0,.44,2.53A9.67,9.67,0,0,0,96,27.24a46.66,46.66,0,0,0,5.7,3.48c1.91,1,3.53.37,4.51-1.54a38.51,38.51,0,0,0,1.7-4.08c.23-.61.54-.83,1.16-.57.26.11.53.17.8.26,1.84.58,2.11,1,1.3,2.79a6,6,0,0,1-1.6,2.19,17.71,17.71,0,0,1-10.3,4.07c-5.54.29-11.62-4.5-13.28-10.28A14.33,14.33,0,0,1,93,7a42.94,42.94,0,0,1,7.29-3c2.67-.86,5.13.06,7.29,1.69A26.35,26.35,0,0,1,110,8c.55.53.54,1-.11,1.48C109,10.11,108.18,10.72,107.25,11.39Z"/>
        <path d="M302.88,8.06c.31-.2.62-.42.94-.6,1.64-.91,3.27-1.84,4.94-2.7s3.09-.44,3.77,1.46c1.14,3.19,2.24,6.39,3.34,9.59.77,2.26,1.55,4.52,2.26,6.8.93,3,2.23,5.7,5,7.68-1.64,1.09-3.11,2.11-4.64,3a1.31,1.31,0,0,1-1.21-.3c-1.18-1.27-2.28-2.63-3.52-4.1-.32.2-.82.5-1.3.83a21.92,21.92,0,0,1-7.79,3.53,5.82,5.82,0,0,1-4.17-.6,4.47,4.47,0,0,1-2-6.47A14.83,14.83,0,0,1,305,19.89c1.4-.75,2.85-1.42,4.31-2.07.65-.29.79-.6.53-1.28-.79-2-1.51-4.11-2.27-6.17-.88-2.39-1.69-2.81-4.17-2.2a3.26,3.26,0,0,1-.45.05Zm9.78,17.14c-.37-1.16-.86-2.88-1.5-4.53a1.56,1.56,0,0,0-1.27-.62,7.77,7.77,0,0,0-5,2c-1.18,1.12-2.23,2.4-1.76,4.16a5.74,5.74,0,0,0,3.76,4C308.8,30.94,312.72,28.29,312.66,25.2Z"/>
        <path d="M149.5.22c-.11,1.79-.19,3.57-.33,5.35-.06.77.17,1.1,1,1.08,2,0,3.92.06,5.87-.08a15.4,15.4,0,0,0,2.8-.83,4.35,4.35,0,0,1,1.14,0c0,.41.12.93-.08,1.21a4.62,4.62,0,0,1-3.77,2c-1.87.06-3.75.08-5.63,0-.94,0-1.27.32-1.27,1.25,0,5.07,0,10.13,0,15.2a5.43,5.43,0,0,0,2.29,4.64c1.38,1,2.53.75,3.22-.78.79-1.74,1.39-3.55,2.15-5.52,1.07.26,2.19.49,3.27.83a1.06,1.06,0,0,1,.57.79,4.79,4.79,0,0,1-1.34,4.28,12.31,12.31,0,0,1-11.56,3.41,5.4,5.4,0,0,1-4.51-5.31c-.15-5.86-.14-11.72-.2-17.59,0-1.47-.06-2.95,0-4.42a2.41,2.41,0,0,1,.53-1.63c1.78-1.45,3.66-2.77,5.5-4.14Z"/>
        <path d="M169,25.94c0,.91,0,1.54,0,2.18a3.18,3.18,0,0,0,2.08,3.06,3.53,3.53,0,0,0,4-.55,5,5,0,0,0,1.43-5.25A2.76,2.76,0,0,0,175.09,24c-2.63-1.24-5.3-2.41-8-3.54-3.77-1.58-5.09-4.72-3.93-8.65,1.45-4.89,8.92-8.77,12.94-7.48a9.12,9.12,0,0,1,5.26,3.8l-3.05,3.48c-1.62-3.22-4.81-3.48-7.66-4.35a2.23,2.23,0,0,0-3,1.22,14.13,14.13,0,0,0-.89,4c-.1,1.08.78,1.67,1.73,2.05,2.85,1.14,5.66,2.41,8.56,3.39,5.23,1.75,5.35,6.54,3.59,9.88a11,11,0,0,1-13.53,4.87,4.79,4.79,0,0,1-2.88-5c.06-.33.37-.81.64-.87C166.21,26.42,167.58,26.21,169,25.94Z"/>
        <path d="M263,7.76l-3.33,3.81c-1.85-3.32-5.13-3.7-8.2-4.48a1.7,1.7,0,0,0-.71,0c-1.34.23-2.45,1.82-2.7,3.87-.23,1.89.21,2.91,1.71,3.54,2.69,1.11,5.41,2.15,8.12,3.21a19.42,19.42,0,0,1,1.88.76c2.66,1.37,3.77,4.1,3,7.23a10.61,10.61,0,0,1-11.33,7.59,15.43,15.43,0,0,1-2.79-.62,4.73,4.73,0,0,1-3.13-4.75,1.22,1.22,0,0,1,1.1-1.32c1.26-.21,2.51-.44,3.88-.68,0,.31,0,.53-.06.74-.44,2.53.72,4.39,3,4.85,1.93.39,4-1.19,4.52-3.38.56-2.49.07-3.48-2.27-4.53s-5-2.22-7.45-3.27a6.27,6.27,0,0,1-4-7.72c1.14-4.78,7-9,11.92-8.57C259,4.3,260.89,6.08,263,7.76Z"/>
        <path d="M293.6,9a7.61,7.61,0,0,0-5.47-3.51A2.44,2.44,0,0,0,285,7.53a15.1,15.1,0,0,0,.72,8.24,18.26,18.26,0,0,1,.75,6c0,2.56-.32,2.19,2.24,2.19,1.93,0,3.94.34,5.64-1.07.12-.1.8.17.92.42s.37,1.06.17,1.36a4.53,4.53,0,0,1-3.7,2.32c-1.4,0-2.8,0-4.2,0-.89,0-1.19.33-1.15,1.21.05,1.43,0,2.87,0,4.3,0,.83-.3,1.35-1.22,1.46-1.56.19-3.11.46-4.83.72V27.24A10.53,10.53,0,0,1,279,27c-.31-.1-.8-.25-.83-.45a1.25,1.25,0,0,1,.29-1.07c2.8-2.13,1.8-4.9,1.29-7.56-.16-.81-.6-1.57-.79-2.37a6.69,6.69,0,0,1,.86-5.5,20.42,20.42,0,0,1,8.48-7.71,7,7,0,0,1,8.47,2.45c.47.73.49,1.27-.27,1.82C295.58,7.31,294.68,8.1,293.6,9Z"/>
        <path d="M214.25,81.3c-.39.25-.79.49-1.16.76a2.11,2.11,0,0,0-1,2.49,2.3,2.3,0,0,0,2.24,1.68,3.9,3.9,0,0,0,3.82-3.43,6.07,6.07,0,0,0-7.86-6.09,4.18,4.18,0,0,0-2.53,2.36,34.11,34.11,0,0,1-1.92,3.7,10.89,10.89,0,0,1-1.53,1.65c-.23-2.91-.35-5.46,2-7.53-3-.48-5.72-.89-8.39.12s-4.22,3.39-5.4,5.91c-1.66-.61-2-1.23-1.46-2.72,1.5-3.87,4.53-5.82,8.51-6.46,3.11-.51,6.11.24,9.11.92a3.51,3.51,0,0,0,1.82-.07,9,9,0,0,1,5.53.18c1.22.35,2.42.81,3.65,1.15,1.9.54,2.4.34,3.48-1.31a4.69,4.69,0,0,0,.28-.55,2.63,2.63,0,0,1-.05,3.5,16.21,16.21,0,0,1-3.06,1.86,32.61,32.61,0,0,1,.28,4.19c-.09,2.13-2,4-4.32,4.55a5,5,0,0,1-5.37-2c-1.52-2.2-.48-5,2-5.37a4.52,4.52,0,0,1,1.2.14Z"/>
        <path d="M178.76,80.94a4.36,4.36,0,0,1,1.17-.17,3.19,3.19,0,0,1,2.67,4.13,4.78,4.78,0,0,1-4.09,3.36c-4.29.35-7.1-3.14-6.06-7.55.11-.46.25-.92.42-1.55-1.64-.31-3.33-.65-3.82-2.53a13,13,0,0,1-.17-2.35l.43-.12a5.39,5.39,0,0,1,.55.63c.89,1.36,1.55,1.64,3.14,1.21,1.84-.5,3.66-1.08,5.51-1.58a7.78,7.78,0,0,1,4.57.37,4.76,4.76,0,0,0,2.28.13c1.41-.27,2.76-.86,4.17-1a21.5,21.5,0,0,1,3.71.1c-1.87,2.14-3.5,2.82-7.07,3,1.67,3.19,3.23,6.45,7,7.49a25.82,25.82,0,0,0,4.6.36c.5,0,1.33.06,1.42.3.26.76.2,1.78-.74,2a14.23,14.23,0,0,1-4.57.43,11.08,11.08,0,0,1-7.74-5.15,43.23,43.23,0,0,1-2.46-4.36,3,3,0,0,0-3.27-1.77,6.54,6.54,0,0,0-5.65,5.89,3.94,3.94,0,0,0,3.61,4,2.47,2.47,0,0,0,2.49-1.68,2.24,2.24,0,0,0-1.18-2.61c-.32-.21-.65-.41-1-.61Z"/>
        <path d="M196.41,98c0-1.88-1.18-2.85-2.25-3.9A10.19,10.19,0,0,1,191,88.56c2.51,1.13,4.86,2.18,5.52,5.16,4.06-4.77,5.3-9.57.95-15.11,1.08-1.17,1.94-1.21,3-.08,2.18,2.38,2.7,5.27,2.43,8.36C202.62,90.18,199.24,96,196.41,98Z"/>
        <path d="M306,59.9h-2v-12c1.59,0,3.24,0,4.9,0a28.58,28.58,0,0,1,3.93.18,2.78,2.78,0,0,1,2.61,2.9,3,3,0,0,1-2.27,3.35l-.94.34,3.35,5.2h-2.07c-1-1.62-2-3.2-3-4.75a1.33,1.33,0,0,0-.89-.43c-3.75-.33-3.76-.32-3.74,3.43C305.85,58.67,305.91,59.22,306,59.9Zm3.4-10.48v-.06a25.38,25.38,0,0,0-2.76,0c-.27,0-.74.55-.7.78.14,1-.7,2.63.48,2.86a20.84,20.84,0,0,0,5.95-.06c1.06-.11,1.39-1.11,1.3-2.12A1.52,1.52,0,0,0,312,49.43C311.11,49.38,310.23,49.42,309.35,49.42Z"/>
        <path d="M49.78,53.38,51,54.7A18.14,18.14,0,0,1,52.44,53a22,22,0,0,1,2-1.49l.1,2.17a4.35,4.35,0,0,0-2.7,2.94c-.05.82,1.28,1.81,2.77,1.92-.15.48-.2,1.24-.44,1.3-1.37.36-2.31-.48-3.18-1.5-1.79,1.74-3.93,1.84-6.17,1.49a2.94,2.94,0,0,1-2.64-2.28,3.44,3.44,0,0,1,1-3.6c.42-.36.88-.67,1.37-1a5.18,5.18,0,0,1-.52-.8,4.29,4.29,0,0,1-.36-1.24c-.13-1.92,1.38-3.1,3.84-3.06,2.27,0,3.79,1.29,3.52,3.1A9.53,9.53,0,0,1,49.78,53.38Zm-3.05,5.47c1.66,0,3.25-1.17,3.24-2.4s-1.76-2.66-3.24-2.64a2.63,2.63,0,0,0-2.86,2.54C43.87,57.87,45,58.84,46.73,58.85Zm.54-6.43c1.25,0,2-.64,2.06-1.67s-.77-1.8-2-1.81-2.1.72-2.08,1.8A1.84,1.84,0,0,0,47.27,52.42Z"/>
        <path d="M146.56,47.78c3.6.07,5.89,1.5,6.72,4,1.35,4.09-1.17,7.8-5.56,8.11a11.85,11.85,0,0,1-3.09-.19,5.61,5.61,0,0,1-4.87-6,5.86,5.86,0,0,1,5.18-5.82A15.1,15.1,0,0,1,146.56,47.78Zm.2,1.41c-3.16,0-5,1.67-5,4.61s1.8,4.81,5,4.82,5-1.81,5-4.69S149.84,49.21,146.76,49.19Z"/>
        <path d="M230.91,54.47c-1.83,0-3.54,0-5.25,0a.93.93,0,0,0-.62.63c-.06,1.07,0,2.14,0,3.3h8.87V59.9H223.13v-12h10.2v1.38c-2.41,0-4.86,0-7.3,0-.78,0-1.05.3-1,1.07.08,3.27-.42,2.74,2.67,2.77,1.06,0,2.12-.08,3.25-.13Z"/>
        <path d="M206.34,59.89h-1.88c0-1.51,0-3,0-4.43,0-.68-.2-1-1-1-2.15,0-4.31,0-6.46,0-.66,0-1,.22-1,.88,0,1.51,0,3,0,4.57h-1.91v-12h1.92c0,1.47-.05,2.89,0,4.31a1.2,1.2,0,0,0,.83.82c2.19.07,4.39,0,6.59,0,.67,0,.9-.33.9-1,0-1.38,0-2.76,0-4.19h1.88Z"/>
        <path d="M116.43,59.91h-1.89v-12c2.74,0,5.5-.1,8.24,0,2.13.1,3.15,1.18,3.2,3,.07,2.21-.8,3.36-3.07,3.62a38.46,38.46,0,0,1-5.26.1c-1,0-1.26.34-1.23,1.24C116.46,57.2,116.43,58.5,116.43,59.91Zm3.32-6.73v0h2.63l.35,0a1.88,1.88,0,0,0,1.66-2,1.58,1.58,0,0,0-1.74-1.69c-1.76-.05-3.51-.08-5.26-.05-.31,0-.87.32-.87.51a8.56,8.56,0,0,0,.17,3c.09.28,1.37.19,2.1.25C119.11,53.2,119.43,53.18,119.75,53.18Z"/>
        <path d="M277.66,59.9h-2l5.38-12h2l5.78,11.94h-2.15c0-.17-.06-.39-.1-.6-.41-2.07-1.1-2.63-3.18-2.63h-2.28C278.56,56.65,277.89,57.28,277.66,59.9ZM282.14,50h-.35l-2.29,5.18h5.11Z"/>
        <path d="M91.88,47.92h2c2,4,3.85,8,5.76,11.95h-2a16.61,16.61,0,0,0-1-2.39,1.83,1.83,0,0,0-1.25-.79c-1.52-.1-3,0-4.56-.06a1.39,1.39,0,0,0-1.6,1.07c-.22.71-.53,1.39-.84,2.18h-1.8ZM93,50h-.34l-2.31,5.26h5.13Z"/>
        <path d="M260.13,56.13l1.34,1.69a9.1,9.1,0,0,1-8.28,1.89,6.15,6.15,0,0,1-4.94-6.32,6.07,6.07,0,0,1,5.69-5.49,14.61,14.61,0,0,1,3.68.13,26.19,26.19,0,0,1,3.51,1.06c-.37.66-.72,1.27-1.08,1.89a6.8,6.8,0,0,0-7.2-1.3A4.3,4.3,0,0,0,251.47,57C254,59.38,258.45,59,260.13,56.13Z"/>
        <path d="M335.89,53.38c1.29-1.83,2.85-3.34,3.8-5.45H342c-1.31,1.72-2.49,3.45-3.86,5a5.55,5.55,0,0,0-1.47,4.47,22.05,22.05,0,0,1,0,2.45h-2c.05-.42.09-.88.15-1.33A7.25,7.25,0,0,0,333,52.3,50.35,50.35,0,0,1,329.69,48h2.56C332.3,48.81,333.77,51,335.89,53.38Z"/>
        <path d="M163.72,86A6.06,6.06,0,0,1,162,81.63c0-.7.3-1.06,1-.95a2.15,2.15,0,0,0,2.07-.81,2.73,2.73,0,0,1,3.31-.34,2.84,2.84,0,0,1,1.25,3.09,2.6,2.6,0,0,1-2.59,2.2A3.49,3.49,0,0,0,163.72,86Z"/>
        <path d="M229.62,86.23a9.08,9.08,0,0,0-1.44-1,3.17,3.17,0,0,0-1.49-.33A3,3,0,0,1,223.41,83a2.87,2.87,0,0,1,1.07-3.47,3,3,0,0,1,3.7.56,2.16,2.16,0,0,0,1.44.53c1.14-.1,1.52.5,1.32,1.4C230.64,83.37,230.13,84.64,229.62,86.23Z"/>
        <path d="M174.08,59.91h-1.85c0-3.29,0-6.54,0-9.8a1.11,1.11,0,0,0-.73-.8c-1.34-.08-2.69,0-4.11,0V47.81h11.59v1.45c-1.32,0-2.63,0-3.92,0-.33,0-.9.47-.9.74C174.06,53.3,174.08,56.56,174.08,59.91Z"/>
        <path d="M119.85,81c0-2,0-3.84,0-5.71,0-.62.24-.86.85-.86,1.8,0,3.59,0,5.45,0v1.35c-1.19,0-2.34,0-3.49,0-.33,0-.64.38-1,.58.32.21.6.54,1,.62s1,0,1.42,0a1,1,0,0,1,.57.66c0,.15-.33.51-.55.55-.54.08-1.12,0-1.67.06-.27.05-.48.38-.72.58.23.25.46.7.71.71,1.23.08,2.46,0,3.75,0V81Z"/>
        <path d="M228,75c3.08,1.45,6.13,3.09,9.61.76a10.32,10.32,0,0,0-1.91-.15c-.66.08-1.29.39-1.95.54a2.07,2.07,0,0,1-2.21-.78c1.9-1.73,6-1.53,8.39.52a7.6,7.6,0,0,1-6.28,2.75A6.52,6.52,0,0,1,228,75Z"/>
        <path d="M161.5,75.31a2.24,2.24,0,0,1-2.53.78,13.11,13.11,0,0,0-2.31-.53,5.18,5.18,0,0,0-1.5.32c3.67,2.23,6.73.55,10-1.15a7.1,7.1,0,0,1-9.88,3,18.47,18.47,0,0,1-2.14-1.93,22.86,22.86,0,0,1,2.52-1.27A6.62,6.62,0,0,1,161.5,75.31Z"/>
        <path d="M129,80.44l.47-1.24c1.35.18,2.57.43,3.8.48.37,0,.77-.5,1.16-.78a4.68,4.68,0,0,0-1.07-.54,18,18,0,0,1-2.69-.48,2.53,2.53,0,0,1-1.41-1.35c-.28-.86.36-1.52,1.16-1.83,1.82-.71,3.58-.3,5.43.29l-.48,1c-1.55-.33-3-1.07-4.45,0l-.06.43c.59.13,1.17.27,1.76.38s1.35.14,2,.3a1.69,1.69,0,0,1,1.52,1.6,1.85,1.85,0,0,1-1.35,2A8.6,8.6,0,0,1,129,80.44Z"/>
        <path d="M256.69,81.07a3.25,3.25,0,0,1-3.36-3.39,3.35,3.35,0,0,1,3.45-3.34,3.42,3.42,0,0,1,3.46,3.37A3.36,3.36,0,0,1,256.69,81.07Zm1.75-3.3a1.78,1.78,0,0,0-1.7-2c-1,0-1.63.77-1.65,1.94a1.78,1.78,0,0,0,1.69,2A1.8,1.8,0,0,0,258.44,77.77Z"/>
        <path d="M245.28,76.73l-.8-1.11a4.74,4.74,0,0,1,4.24-1.16,2.14,2.14,0,0,1,1.84,1.8c.15,1-.47,1.55-1.25,2s-1.36.73-2.05,1.09l.06.31h3.51V81H244a15.32,15.32,0,0,1,1.78-2.23c.75-.64,1.7-1,2.51-1.61.25-.17.56-.68.48-.81s-.64-.62-.89-.56A23.54,23.54,0,0,0,245.28,76.73Z"/>
        <path d="M272.15,77a4.6,4.6,0,0,0,1.14-.16,3.15,3.15,0,0,0,.73-.6c-.24-.23-.51-.68-.72-.65-1,.11-2,.36-3.12.59l-.54-.89a5.48,5.48,0,0,1,3.81-1c2.15.22,2.72,1.26,2,2.69.24,1.12.66,1.94.49,2.6a2.06,2.06,0,0,1-2.3,1.36c-1.35-.07-2.71-.29-4.29-.47l.58-1.48c1.09.24,2.07.52,3.06.66.57.08,1.37,0,1.26-.81,0-.31-.78-.55-1.23-.76a2.36,2.36,0,0,0-.8-.06Z"/>
        <path d="M138.51,75.76V74.52h6.86v1.13a1,1,0,0,1-.16.09c-2.37.29-2.37.29-2.37,2.78V81H141V77.54c0-1.71,0-1.71-1.66-1.74Z"/>
        <path d="M265.5,74.52V81h-1.72V76.78l-1.09-.1C262.53,75.34,263.77,74.36,265.5,74.52Z"/>
        <path d="M150.41,80.26c-.69.39-1.09.79-1.4.73s-.58-.55-.87-.85c.31-.29.61-.79.94-.82S149.75,79.77,150.41,80.26Z"/>
      </g>
    </g>
  </g>
</svg>
