<svg xmlns="http://www.w3.org/2000/svg" width="232.83" height="65.58" viewBox="0 0 232.83 65.58">
  <g id="Layer_2" data-name="Layer 2">
    <g id="Layer_1-2" data-name="Layer 1">
      <g id="_1ZPRJK.tif" data-name="1ZPRJK.tif">
        <g>
          <path d="M180.5,15c.29,4.42,1,8.48.72,12.48-.41,5.67-5.56,10.42-11.87,11.84a13.36,13.36,0,0,1-14.48-5.76c-2.06-3.19-2.53-6.54-.61-10a7.85,7.85,0,0,1,7.68-4.31,6.78,6.78,0,0,1,2.26,1.05,8.23,8.23,0,0,1-1.62,1.61c-4.08,2.25-5.5,5.36-3.78,8.51,1.88,3.44,6,4.52,9.85,2.41a10.32,10.32,0,0,0,5.76-9.61c-.07-10.71-12.26-18.46-22-14.09a10.53,10.53,0,0,0-5.44,5.6,99.37,99.37,0,0,1-5.16,10c-1.08,1.78-2.83,3.16-4.62,5.1-.91-10.84-.23-13.5,5.13-20.73C135.61,8,129,7,122.39,8.84c-7,2-11.43,7.05-14.7,13.26-.54,1-1,2.1-1.46,3.13-4-.64-5.75-3.15-4.43-7C105,9,111.93,3.7,121.13,1.2c8.46-2.3,16.87-.94,25.18,1.08,3.16.77,6.06,1.48,9.44.11C159.67.8,163.9,1.83,167.9,3,171.61,4,175.25,5.36,179,6.41c4.84,1.36,6.32.67,8.92-3.61.32-.52,1.09-.76,1.65-1.14a5.56,5.56,0,0,1,.91,1.61c1,5.84-2.31,10.44-8.2,11.42C181.51,14.82,180.77,14.92,180.5,15Z"/>
          <path d="M53.15,15.08l-2.21-.36c-5.94-1-9.27-5.37-8.43-11.28.09-.64.68-1.2,1-1.8.56.39,1.31.67,1.63,1.2,2.54,4.23,4.07,4.9,8.94,3.57C59.37,5,64.58,3.35,69.87,2c3.71-.91,7.29.13,10.87,1.28a12.26,12.26,0,0,0,5.77.37c3.28-.62,6.42-1.95,9.7-2.67a22.33,22.33,0,0,1,12.13.81C102.49,6.05,97.25,11.26,89,8.94c8.33,17.6,17,24,34.61,20.66,1.63,4,.57,6.6-3.39,7.71-8.82,2.47-16.64,0-23.71-5.26C90,27.27,85.8,20.67,82.8,13.41c-2.34-5.66-4.44-5.88-10-5.62-7.12.34-14.4,8.82-14.19,16A10.81,10.81,0,0,0,66,33.52,6.72,6.72,0,0,0,74.43,30c1.26-2.86-.05-5.83-3.39-7.67a5.5,5.5,0,0,1-1.11-.56,11.6,11.6,0,0,1-1.16-1.44c.59-.35,1.15-.94,1.78-1,6.18-.72,11,5.44,8.87,11.54a12.43,12.43,0,0,1-9.76,8.54c-10.81,2.21-20-7.24-17.93-18.4C52.07,19.07,52.62,17.24,53.15,15.08Z"/>
          <path d="M101.62,39.39c3.47,2,6.94,3.43,9.59,5.76s4.22,5.4,6.2,8.05c10.77-14.1,12.71-25.35,1.39-39.62,2.75-3.2,5.69-3.45,8.38-.4,7,8,8.21,17.37,5.62,27.3-2.52,9.67-8.74,17.2-15.22,24.51a4.36,4.36,0,0,1-1,.59c-.24-.38-.64-.72-.61-1,.27-3.76-2.25-6-4.61-8.24-4.55-4.37-8.32-9.19-9.59-15.56C101.69,40.37,101.68,40,101.62,39.39Z"/>
          <path d="M28.62,33.51c-3.08-3.81-4.78-7.76-4.4-12.47.13-1.6.56-2.64,2.41-2.17a5.15,5.15,0,0,0,5.84-2c2.28-2.69,6.28-2.79,9.23-.88a7.9,7.9,0,0,1,3.09,9.08c-1.07,3.27-4.34,5.95-7.68,5.23s-5.25.47-7.31,2.39A10.84,10.84,0,0,1,28.62,33.51Z"/>
          <path d="M204.28,33.56a23.89,23.89,0,0,1-2-1.53,5.8,5.8,0,0,0-5.78-1.74c-3.71.85-7.25-1.71-8.37-5.29a7.87,7.87,0,0,1,3.42-9.17,7.44,7.44,0,0,1,9.75,1.83A3.24,3.24,0,0,0,204.89,19a26.62,26.62,0,0,1,3.33-.26C209.62,24.48,207.82,29.11,204.28,33.56Z"/>
          <path d="M226.94,7C225,5.15,223,5.48,221,5.83A35.65,35.65,0,0,0,217.14,7c-3.11.9-5.19.23-7.41-2.44A18.44,18.44,0,0,1,223,1.88c3,.6,5.84,2,8.72,3.16,1.14.44,1.61,1.21.54,2.28-10.47,10.42-25.79,7.94-32.4-3.83,1.73.56,3,.87,4.26,1.4,2,.88,3.91,1.93,5.89,2.84a15.88,15.88,0,0,0,12.27.49C223.67,7.72,225.16,7.43,226.94,7Z"/>
          <path d="M23.25,4.55C21,7.31,19,7.87,15.61,6.92A33.24,33.24,0,0,0,9.74,5.65c-1.13-.11-2.33.48-4.15.91,7.83,2.56,10,3.52,14.22,2.16,4.41-1.41,8.61-3.44,13-5-3.41,6-8.31,9.43-15.23,10.05C10.31,14.47,4.87,11.26,0,6.41,4.85,1,15.49.14,23.25,4.55Z"/>
        </g>
      </g>
    </g>
  </g>
</svg>
